<svg width="1280" height="793" viewBox="0 0 1280 793" fill="none" xmlns="http://www.w3.org/2000/svg">
<ellipse cx="654.5" cy="729.5" rx="934.5" ry="726.5" fill="#60007F"/>
<g clip-path="url(#clip0_1119_270)">
<path d="M299.006 389.286H292.236L280.112 360.815H287.851L295.59 379.684L303.379 360.815H311.118L298.994 389.286H299.006Z" fill="white"/>
<path d="M331.826 389.286L329.826 384.101H317.826L315.826 389.286H308.298L320.211 360.815H327.404L339.317 389.286H331.826ZM323.826 368.718L320.211 378.072H327.491L323.826 368.718Z" fill="white"/>
<path d="M370.46 372.501C370.571 373.407 370.634 374.275 370.634 375.094C370.634 379.399 369.242 382.947 366.46 385.738C363.677 388.529 360.149 389.919 355.863 389.919C351.578 389.919 347.913 388.492 344.944 385.627C341.975 382.761 340.497 379.238 340.497 375.044C340.497 370.851 341.963 367.365 344.907 364.487C347.839 361.609 351.453 360.17 355.739 360.17C359.006 360.17 361.901 360.914 364.422 362.403C366.944 363.892 368.696 365.988 369.652 368.717L362.882 370.678C361.491 367.961 359.106 366.596 355.739 366.596C353.416 366.596 351.466 367.402 349.913 369.015C348.348 370.628 347.578 372.638 347.578 375.044C347.578 377.451 348.385 379.473 349.988 381.098C351.59 382.724 353.578 383.542 355.963 383.542C357.801 383.542 359.391 383.083 360.708 382.178C362.025 381.272 362.957 380.019 363.491 378.444H354.77V372.489H370.472L370.46 372.501Z" fill="white"/>
<path d="M395.354 389.286L393.354 384.101H381.354L379.354 389.286H371.826L383.739 360.815H390.932L402.845 389.286H395.354ZM387.354 368.718L383.739 378.072H391.019L387.354 368.718Z" fill="white"/>
<path d="M313.006 421.69H306.199V407.498L298.758 421.69H294.422L286.932 407.411V421.69H280.124V393.219H287.019L296.596 410.86L306.174 393.219H313.031V421.69H313.006Z" fill="white"/>
<path d="M344.248 408.85C344.248 412.932 343.093 416.194 340.783 418.651C338.472 421.107 335.416 422.323 331.615 422.323C327.814 422.323 324.596 421.095 322.236 418.651C319.863 416.194 318.683 412.932 318.683 408.85V393.207H325.702V408.85C325.702 411.009 326.236 412.708 327.317 413.974C328.398 415.239 329.826 415.859 331.615 415.859C333.404 415.859 334.683 415.227 335.702 413.974C336.721 412.708 337.23 411.009 337.23 408.85V393.207H344.248V408.85Z" fill="white"/>
<path d="M377.143 421.69H371.354L356.932 405.203V421.69H349.913V393.219H355.739L370.162 410.215V393.219H377.143V421.69Z" fill="white"/>
<path d="M394.211 393.219C398.894 393.219 402.671 394.534 405.528 397.152C408.397 399.769 409.826 403.206 409.826 407.461C409.826 411.716 408.397 415.14 405.528 417.77C402.658 420.388 398.894 421.703 394.211 421.703H382.932V393.231H394.211V393.219ZM393.95 415.611C396.621 415.611 398.758 414.867 400.36 413.378C401.963 411.89 402.77 409.917 402.77 407.448C402.77 404.98 401.963 403.007 400.36 401.518C398.758 400.03 396.621 399.285 393.95 399.285H389.95V415.599H393.95V415.611Z" fill="white"/>
<path d="M439.59 396.916C442.522 399.806 444 403.33 444 407.498C444 411.666 442.534 415.14 439.59 418.018C436.658 420.896 433.056 422.335 428.808 422.335C424.559 422.335 420.957 420.896 418.025 418.018C415.093 415.14 413.615 411.641 413.615 407.498C413.615 403.354 415.081 399.806 418.025 396.916C420.957 394.025 424.559 392.586 428.808 392.586C433.056 392.586 436.658 394.025 439.59 396.916ZM434.634 413.515C436.199 411.914 436.969 409.905 436.969 407.498C436.969 405.091 436.186 403.032 434.634 401.419C433.068 399.806 431.131 399 428.808 399C426.485 399 424.534 399.806 422.981 401.419C421.416 403.032 420.646 405.054 420.646 407.498C420.646 409.942 421.429 411.914 422.981 413.515C424.547 415.115 426.485 415.921 428.808 415.921C431.131 415.921 433.081 415.115 434.634 413.515Z" fill="white"/>
<path d="M163.578 375.95H179.155V392.351C170.559 392.351 163.578 385.379 163.578 376.794V375.95Z" fill="white"/>
<path d="M239.28 375.95H254.857V377.513C254.857 390.825 243.652 392.351 241.329 392.351H239.292V375.95H239.28Z" fill="white"/>
<path d="M239.28 375.95C231.801 375.95 224.969 378.692 219.714 383.208V361.15H207.54C202.658 361.15 198.708 365.095 198.708 369.971V383.22C193.441 378.704 186.621 375.963 179.143 375.963V392.363H163.578V393.207C163.578 401.791 170.547 408.751 179.143 408.763H182.832C182.832 423.29 194.658 435.101 209.205 435.101C223.752 435.101 235.578 423.29 235.578 408.763H239.267C247.863 408.763 254.832 401.804 254.832 393.207V392.363H239.267V375.963L239.28 375.95ZM201.205 387.698C197.143 391.532 192.745 397.66 192.099 406.555H186.758C187.59 397.884 193.354 390.676 201.205 387.698ZM186.758 410.934H192.112C192.807 419.718 197.578 426.057 201.739 429.99C193.615 427.136 187.627 419.804 186.77 410.934H186.758ZM207.019 428.737C203.217 425.734 197.354 419.73 196.497 410.934H207.019V428.737ZM207.019 406.555H196.484C197.292 397.015 203.23 391.246 207.019 388.517V406.555ZM206.075 371.633C206.075 369.909 207.478 368.494 209.217 368.494C210.957 368.494 212.36 369.896 212.36 371.633C212.36 373.37 210.957 374.772 209.217 374.772C207.478 374.772 206.075 373.37 206.075 371.633ZM221.329 406.555H211.404V388.554C215.031 391.284 220.571 396.966 221.329 406.555ZM211.404 428.625V410.934H221.317C220.547 420.251 215.031 425.896 211.404 428.625ZM216.447 430.076C220.472 426.342 225.056 420.139 225.702 410.934H231.665C230.795 419.879 224.696 427.285 216.447 430.076ZM225.702 406.555C225.093 397.511 220.857 391.395 216.957 387.599C224.944 390.515 230.82 397.784 231.665 406.555H225.702Z" fill="white"/>
<path d="M148 375.95V376.794C148 385.379 154.969 392.351 163.578 392.351V375.95H148Z" fill="white"/>
<path d="M254.845 375.95V392.351C263.441 392.351 270.422 385.391 270.422 376.794V375.95H254.845Z" fill="white"/>
<path d="M219.714 370.951V361.15H209.888L219.714 370.951Z" fill="white"/>
<path d="M209.217 440.051C207.23 440.051 205.279 439.84 203.391 439.492L209.217 450.013L215.043 439.492C213.155 439.852 211.217 440.051 209.217 440.051Z" fill="white"/>
<path d="M211.242 348H208.497V353.384H211.242V348Z" fill="white"/>
<path d="M201.59 348.74L198.906 349.316L200.039 354.58L202.723 354.004L201.59 348.74Z" fill="white"/>
<path d="M192.311 351.47L189.807 352.594L192.018 357.505L194.522 356.381L192.311 351.47Z" fill="white"/>
<path d="M183.811 356.099L181.598 357.722L184.79 362.061L187.003 360.438L183.811 356.099Z" fill="white"/>
<path d="M176.465 362.381L174.641 364.431L178.671 368.007L180.495 365.957L176.465 362.381Z" fill="white"/>
<path d="M218.153 348.726L217.022 353.99L219.706 354.565L220.837 349.301L218.153 348.726Z" fill="white"/>
<path d="M227.425 351.466L225.213 356.376L227.716 357.501L229.928 352.591L227.425 351.466Z" fill="white"/>
<path d="M235.926 356.095L232.737 360.436L234.95 362.058L238.14 357.717L235.926 356.095Z" fill="white"/>
<path d="M243.277 362.368L239.246 365.942L241.069 367.993L245.1 364.418L243.277 362.368Z" fill="white"/>
<path d="M227.722 439.485L225.219 440.61L227.43 445.52L229.934 444.395L227.722 439.485Z" fill="white"/>
<path d="M234.952 434.939L232.739 436.562L235.931 440.901L238.144 439.278L234.952 434.939Z" fill="white"/>
<path d="M241.063 428.987L239.24 431.037L243.271 434.612L245.094 432.562L241.063 428.987Z" fill="white"/>
<path d="M244.934 421.958L243.909 424.502L248.911 426.512L249.936 423.968L244.934 421.958Z" fill="white"/>
<path d="M174.71 421.958L169.708 423.968L170.733 426.511L175.735 424.502L174.71 421.958Z" fill="white"/>
<path d="M192.008 439.476L189.796 444.386L192.3 445.511L194.512 440.601L192.008 439.476Z" fill="white"/>
<path d="M184.788 434.947L181.595 439.285L183.807 440.909L187 436.571L184.788 434.947Z" fill="white"/>
<path d="M178.662 428.996L174.632 432.572L176.455 434.622L180.485 431.046L178.662 428.996Z" fill="white"/>
<path d="M284.335 432.62V438.475H282.509V432.62H280.087V431.019H286.758V432.62H284.335Z" fill="white"/>
<path d="M296.46 438.488L294.211 435.92H293.677V438.488H291.839V431.019H295.615C296.422 431.019 297.081 431.243 297.565 431.689C298.05 432.136 298.298 432.731 298.298 433.451C298.298 434.059 298.124 434.58 297.776 434.989C297.429 435.399 296.944 435.684 296.335 435.82L298.683 438.475H296.46V438.488ZM295.416 434.381C295.739 434.381 296 434.294 296.199 434.133C296.398 433.972 296.497 433.749 296.497 433.476C296.497 433.203 296.398 432.992 296.199 432.831C296 432.669 295.739 432.582 295.416 432.582H293.677V434.381H295.416Z" fill="white"/>
<path d="M309.217 438.488L308.696 437.123H305.553L305.031 438.488H303.056L306.174 431.019H308.062L311.18 438.488H309.217ZM307.118 433.091L306.174 435.547H308.087L307.13 433.091H307.118Z" fill="white"/>
<path d="M319.379 438.488H317.602L314.422 431.019H316.447L318.484 435.969L320.522 431.019H322.559L319.379 438.488Z" fill="white"/>
<path d="M333.304 438.488H327.478V431.019H333.267V432.607H329.317V434.009H332.944V435.498H329.317V436.9H333.292V438.488H333.304Z" fill="white"/>
<path d="M344.186 438.488H338.671V431.019H340.509V436.875H344.186V438.475V438.488Z" fill="white"/>
<path d="M354.932 438.488H349.416V431.019H351.255V436.875H354.932V438.475V438.488Z" fill="white"/>
<path d="M365.988 438.488H360.161V431.019H365.95V432.607H362V434.009H365.627V435.498H362V436.9H365.975V438.488H365.988Z" fill="white"/>
<path d="M375.975 438.488L373.727 435.92H373.193V438.488H371.354V431.019H375.13C375.938 431.019 376.596 431.243 377.081 431.689C377.565 432.136 377.814 432.731 377.814 433.451C377.814 434.059 377.64 434.58 377.292 434.989C376.944 435.399 376.46 435.684 375.851 435.82L378.199 438.475H375.975V438.488ZM374.932 434.381C375.255 434.381 375.515 434.294 375.714 434.133C375.913 433.972 376.012 433.749 376.012 433.476C376.012 433.203 375.913 432.992 375.714 432.831C375.515 432.669 375.255 432.582 374.932 432.582H373.193V434.381H374.932Z" fill="white"/>
<path d="M388.025 431.429C388.572 431.813 388.919 432.347 389.068 433.017L387.267 433.389C387.205 433.054 387.044 432.793 386.795 432.62C386.547 432.446 386.273 432.347 385.963 432.347C385.652 432.347 385.429 432.421 385.242 432.57C385.056 432.719 384.969 432.893 384.969 433.116C384.969 433.438 385.168 433.649 385.565 433.736L387.118 434.083C388.485 434.394 389.168 435.113 389.168 436.255C389.168 437.024 388.87 437.619 388.286 438.041C387.702 438.463 386.969 438.674 386.087 438.674C385.205 438.674 384.485 438.475 383.876 438.078C383.267 437.681 382.919 437.123 382.82 436.416L384.721 436.044C384.894 436.776 385.391 437.148 386.186 437.148C386.534 437.148 386.795 437.073 386.994 436.937C387.193 436.8 387.292 436.614 387.292 436.379C387.292 436.205 387.242 436.056 387.143 435.957C387.044 435.858 386.857 435.771 386.596 435.721L385.031 435.386C383.69 435.076 383.019 434.356 383.019 433.227C383.019 432.508 383.292 431.937 383.839 431.516C384.385 431.094 385.093 430.883 385.975 430.883C386.795 430.883 387.478 431.069 388.025 431.453V431.429Z" fill="white"/>
</g>
<path d="M449.12 696.12C447.707 697.533 446 698.24 444 698.24C442 698.24 440.293 697.533 438.88 696.12C437.467 694.707 436.76 693 436.76 691C436.76 689 437.467 687.293 438.88 685.88C440.293 684.467 442 683.76 444 683.76C446 683.76 447.707 684.467 449.12 685.88C450.533 687.293 451.24 689 451.24 691C451.24 693 450.533 694.707 449.12 696.12ZM444 697.64C445.813 697.64 447.36 696.993 448.64 695.7C449.933 694.407 450.58 692.84 450.58 691C450.58 689.16 449.933 687.593 448.64 686.3C447.36 685.007 445.813 684.36 444 684.36C442.173 684.36 440.613 685.007 439.32 686.3C438.04 687.593 437.4 689.16 437.4 691C437.4 692.84 438.04 694.407 439.32 695.7C440.613 696.993 442.173 697.64 444 697.64ZM444.06 694.86C442.967 694.86 442.04 694.487 441.28 693.74C440.52 692.98 440.14 692.067 440.14 691C440.14 689.933 440.52 689.027 441.28 688.28C442.04 687.52 442.967 687.14 444.06 687.14C444.767 687.14 445.413 687.307 446 687.64C446.587 687.973 447.04 688.433 447.36 689.02L445.98 689.82C445.633 689.073 444.987 688.7 444.04 688.7C443.36 688.7 442.807 688.927 442.38 689.38C441.967 689.833 441.76 690.373 441.76 691C441.76 691.627 441.967 692.167 442.38 692.62C442.807 693.073 443.36 693.3 444.04 693.3C444.467 693.3 444.86 693.2 445.22 693C445.58 692.8 445.84 692.52 446 692.16L447.38 692.98C447.06 693.553 446.6 694.013 446 694.36C445.413 694.693 444.767 694.86 444.06 694.86ZM452.697 698V696.48L457.637 691.44C458.957 690.12 459.617 688.987 459.617 688.04C459.617 687.253 459.377 686.64 458.897 686.2C458.417 685.76 457.83 685.54 457.137 685.54C455.817 685.54 454.857 686.167 454.257 687.42L452.697 686.5C453.137 685.593 453.743 684.907 454.517 684.44C455.303 683.973 456.17 683.74 457.117 683.74C458.29 683.74 459.31 684.127 460.177 684.9C461.043 685.673 461.477 686.713 461.477 688.02C461.477 689.433 460.643 690.973 458.977 692.64L455.397 696.2H461.737V698H452.697ZM472.608 696.28C471.661 697.6 470.335 698.26 468.628 698.26C466.921 698.26 465.595 697.6 464.648 696.28C463.701 694.96 463.228 693.2 463.228 691C463.228 688.8 463.701 687.04 464.648 685.72C465.595 684.4 466.921 683.74 468.628 683.74C470.335 683.74 471.661 684.4 472.608 685.72C473.555 687.04 474.028 688.8 474.028 691C474.028 693.2 473.555 694.96 472.608 696.28ZM466.008 695.02C466.621 695.967 467.495 696.44 468.628 696.44C469.761 696.44 470.635 695.967 471.248 695.02C471.875 694.073 472.188 692.733 472.188 691C472.188 689.267 471.875 687.927 471.248 686.98C470.635 686.02 469.761 685.54 468.628 685.54C467.495 685.54 466.621 686.013 466.008 686.96C465.395 687.907 465.088 689.253 465.088 691C465.088 692.733 465.395 694.073 466.008 695.02ZM475.392 698V696.48L480.332 691.44C481.652 690.12 482.312 688.987 482.312 688.04C482.312 687.253 482.072 686.64 481.592 686.2C481.112 685.76 480.525 685.54 479.832 685.54C478.512 685.54 477.552 686.167 476.952 687.42L475.392 686.5C475.832 685.593 476.439 684.907 477.212 684.44C477.999 683.973 478.865 683.74 479.812 683.74C480.985 683.74 482.005 684.127 482.872 684.9C483.739 685.673 484.172 686.713 484.172 688.02C484.172 689.433 483.339 690.973 481.672 692.64L478.092 696.2H484.432V698H475.392ZM496.047 693.6V695.34H494.347V698H492.487V695.34H485.347V693.6L490.367 684H492.367L487.347 693.6H492.487V689.64H494.347V693.6H496.047ZM506.629 698L501.629 684H503.629L507.689 695.68L511.729 684H513.749L508.729 698H506.629ZM522.299 688H524.039V698H522.299V696.28C521.433 697.6 520.173 698.26 518.519 698.26C517.119 698.26 515.926 697.753 514.939 696.74C513.953 695.713 513.459 694.467 513.459 693C513.459 691.533 513.953 690.293 514.939 689.28C515.926 688.253 517.119 687.74 518.519 687.74C520.173 687.74 521.433 688.4 522.299 689.72V688ZM518.739 696.58C519.753 696.58 520.599 696.24 521.279 695.56C521.959 694.867 522.299 694.013 522.299 693C522.299 691.987 521.959 691.14 521.279 690.46C520.599 689.767 519.753 689.42 518.739 689.42C517.739 689.42 516.899 689.767 516.219 690.46C515.539 691.14 515.199 691.987 515.199 693C515.199 694.013 515.539 694.867 516.219 695.56C516.899 696.24 517.739 696.58 518.739 696.58ZM534.975 688H536.695V697.58C536.695 699.06 536.195 700.207 535.195 701.02C534.195 701.847 532.995 702.26 531.595 702.26C530.475 702.26 529.509 702.047 528.695 701.62C527.882 701.207 527.269 700.607 526.855 699.82L528.375 698.96C528.922 700.08 530.009 700.64 531.635 700.64C532.675 700.64 533.489 700.367 534.075 699.82C534.675 699.273 534.975 698.527 534.975 697.58V696.16C534.095 697.493 532.842 698.16 531.215 698.16C529.789 698.16 528.582 697.653 527.595 696.64C526.609 695.627 526.115 694.393 526.115 692.94C526.115 691.487 526.609 690.26 527.595 689.26C528.582 688.247 529.789 687.74 531.215 687.74C532.855 687.74 534.109 688.4 534.975 689.72V688ZM528.875 695.48C529.555 696.16 530.402 696.5 531.415 696.5C532.429 696.5 533.275 696.16 533.955 695.48C534.635 694.8 534.975 693.953 534.975 692.94C534.975 691.94 534.635 691.1 533.955 690.42C533.275 689.74 532.429 689.4 531.415 689.4C530.402 689.4 529.555 689.74 528.875 690.42C528.195 691.1 527.855 691.94 527.855 692.94C527.855 693.953 528.195 694.8 528.875 695.48ZM547.612 688H549.352V698H547.612V696.28C546.745 697.6 545.485 698.26 543.832 698.26C542.432 698.26 541.238 697.753 540.252 696.74C539.265 695.713 538.772 694.467 538.772 693C538.772 691.533 539.265 690.293 540.252 689.28C541.238 688.253 542.432 687.74 543.832 687.74C545.485 687.74 546.745 688.4 547.612 689.72V688ZM544.052 696.58C545.065 696.58 545.912 696.24 546.592 695.56C547.272 694.867 547.612 694.013 547.612 693C547.612 691.987 547.272 691.14 546.592 690.46C545.912 689.767 545.065 689.42 544.052 689.42C543.052 689.42 542.212 689.767 541.532 690.46C540.852 691.14 540.512 691.987 540.512 693C540.512 694.013 540.852 694.867 541.532 695.56C542.212 696.24 543.052 696.58 544.052 696.58ZM552.168 692.7V691.02H559.468V692.7H552.168ZM575.561 684V698H573.721V687.06L569.141 694.68H568.901L564.321 687.08V698H562.461V684H564.561L569.021 691.4L573.461 684H575.561ZM585.275 688H587.015V698H585.275V696.56C584.568 697.693 583.488 698.26 582.035 698.26C580.861 698.26 579.921 697.893 579.215 697.16C578.508 696.413 578.155 695.407 578.155 694.14V688H579.895V694.04C579.895 694.853 580.115 695.487 580.555 695.94C580.995 696.38 581.601 696.6 582.375 696.6C583.241 696.6 583.941 696.333 584.475 695.8C585.008 695.253 585.275 694.42 585.275 693.3V688ZM594.644 687.74C595.817 687.74 596.757 688.113 597.464 688.86C598.17 689.593 598.524 690.593 598.524 691.86V698H596.784V691.96C596.784 691.147 596.564 690.52 596.124 690.08C595.684 689.627 595.077 689.4 594.304 689.4C593.437 689.4 592.737 689.673 592.204 690.22C591.67 690.753 591.404 691.58 591.404 692.7V698H589.664V688H591.404V689.44C592.11 688.307 593.19 687.74 594.644 687.74ZM609.233 684H610.973V698H609.233V696.28C608.366 697.6 607.106 698.26 605.453 698.26C604.053 698.26 602.859 697.753 601.873 696.74C600.886 695.713 600.393 694.467 600.393 693C600.393 691.533 600.886 690.293 601.873 689.28C602.859 688.253 604.053 687.74 605.453 687.74C607.106 687.74 608.366 688.4 609.233 689.72V684ZM605.673 696.58C606.686 696.58 607.533 696.24 608.213 695.56C608.893 694.867 609.233 694.013 609.233 693C609.233 691.987 608.893 691.14 608.213 690.46C607.533 689.767 606.686 689.42 605.673 689.42C604.673 689.42 603.833 689.767 603.153 690.46C602.473 691.14 602.133 691.987 602.133 693C602.133 694.013 602.473 694.867 603.153 695.56C603.833 696.24 604.673 696.58 605.673 696.58ZM622.049 696.74C621.022 697.753 619.776 698.26 618.309 698.26C616.842 698.26 615.596 697.753 614.569 696.74C613.556 695.727 613.049 694.48 613.049 693C613.049 691.52 613.556 690.273 614.569 689.26C615.596 688.247 616.842 687.74 618.309 687.74C619.776 687.74 621.022 688.247 622.049 689.26C623.076 690.273 623.589 691.52 623.589 693C623.589 694.48 623.076 695.727 622.049 696.74ZM618.309 696.56C619.309 696.56 620.149 696.22 620.829 695.54C621.509 694.86 621.849 694.013 621.849 693C621.849 691.987 621.509 691.14 620.829 690.46C620.149 689.78 619.309 689.44 618.309 689.44C617.322 689.44 616.489 689.78 615.809 690.46C615.129 691.14 614.789 691.987 614.789 693C614.789 694.013 615.129 694.86 615.809 695.54C616.489 696.22 617.322 696.56 618.309 696.56ZM634.12 692.58C633.694 693.02 633.167 693.24 632.54 693.24C631.914 693.24 631.38 693.02 630.94 692.58C630.5 692.14 630.28 691.607 630.28 690.98C630.28 690.353 630.5 689.827 630.94 689.4C631.38 688.96 631.914 688.74 632.54 688.74C633.167 688.74 633.694 688.96 634.12 689.4C634.56 689.827 634.78 690.353 634.78 690.98C634.78 691.607 634.56 692.14 634.12 692.58ZM651.187 684V685.76H647.047V698H645.207V685.76H641.087V684H651.187ZM659.471 696.74C658.444 697.753 657.198 698.26 655.731 698.26C654.264 698.26 653.018 697.753 651.991 696.74C650.978 695.727 650.471 694.48 650.471 693C650.471 691.52 650.978 690.273 651.991 689.26C653.018 688.247 654.264 687.74 655.731 687.74C657.198 687.74 658.444 688.247 659.471 689.26C660.498 690.273 661.011 691.52 661.011 693C661.011 694.48 660.498 695.727 659.471 696.74ZM655.731 696.56C656.731 696.56 657.571 696.22 658.251 695.54C658.931 694.86 659.271 694.013 659.271 693C659.271 691.987 658.931 691.14 658.251 690.46C657.571 689.78 656.731 689.44 655.731 689.44C654.744 689.44 653.911 689.78 653.231 690.46C652.551 691.14 652.211 691.987 652.211 693C652.211 694.013 652.551 694.86 653.231 695.54C653.911 696.22 654.744 696.56 655.731 696.56ZM671.342 684H673.082V698H671.342V696.28C670.476 697.6 669.216 698.26 667.562 698.26C666.162 698.26 664.969 697.753 663.982 696.74C662.996 695.713 662.502 694.467 662.502 693C662.502 691.533 662.996 690.293 663.982 689.28C664.969 688.253 666.162 687.74 667.562 687.74C669.216 687.74 670.476 688.4 671.342 689.72V684ZM667.782 696.58C668.796 696.58 669.642 696.24 670.322 695.56C671.002 694.867 671.342 694.013 671.342 693C671.342 691.987 671.002 691.14 670.322 690.46C669.642 689.767 668.796 689.42 667.782 689.42C666.782 689.42 665.942 689.767 665.262 690.46C664.582 691.14 664.242 691.987 664.242 693C664.242 694.013 664.582 694.867 665.262 695.56C665.942 696.24 666.782 696.58 667.782 696.58ZM684.158 696.74C683.132 697.753 681.885 698.26 680.418 698.26C678.952 698.26 677.705 697.753 676.678 696.74C675.665 695.727 675.158 694.48 675.158 693C675.158 691.52 675.665 690.273 676.678 689.26C677.705 688.247 678.952 687.74 680.418 687.74C681.885 687.74 683.132 688.247 684.158 689.26C685.185 690.273 685.698 691.52 685.698 693C685.698 694.48 685.185 695.727 684.158 696.74ZM680.418 696.56C681.418 696.56 682.258 696.22 682.938 695.54C683.618 694.86 683.958 694.013 683.958 693C683.958 691.987 683.618 691.14 682.938 690.46C682.258 689.78 681.418 689.44 680.418 689.44C679.432 689.44 678.598 689.78 677.918 690.46C677.238 691.14 676.898 691.987 676.898 693C676.898 694.013 677.238 694.86 677.918 695.54C678.598 696.22 679.432 696.56 680.418 696.56ZM689.035 690.7C689.035 691.087 689.228 691.4 689.615 691.64C690.002 691.867 690.468 692.053 691.015 692.2C691.562 692.333 692.108 692.493 692.655 692.68C693.202 692.853 693.668 693.16 694.055 693.6C694.442 694.027 694.635 694.58 694.635 695.26C694.635 696.167 694.282 696.893 693.575 697.44C692.882 697.987 691.988 698.26 690.895 698.26C689.922 698.26 689.088 698.047 688.395 697.62C687.702 697.193 687.208 696.627 686.915 695.92L688.415 695.06C688.575 695.54 688.875 695.92 689.315 696.2C689.755 696.48 690.282 696.62 690.895 696.62C691.468 696.62 691.942 696.513 692.315 696.3C692.688 696.073 692.875 695.727 692.875 695.26C692.875 694.873 692.682 694.567 692.295 694.34C691.908 694.1 691.442 693.913 690.895 693.78C690.348 693.633 689.802 693.467 689.255 693.28C688.708 693.093 688.242 692.787 687.855 692.36C687.468 691.933 687.275 691.387 687.275 690.72C687.275 689.853 687.608 689.14 688.275 688.58C688.955 688.02 689.802 687.74 690.815 687.74C691.628 687.74 692.348 687.927 692.975 688.3C693.615 688.66 694.095 689.167 694.415 689.82L692.955 690.64C692.595 689.787 691.882 689.36 690.815 689.36C690.322 689.36 689.902 689.48 689.555 689.72C689.208 689.947 689.035 690.273 689.035 690.7ZM701.695 698V683.4H703.435V698H701.695ZM714.53 696.74C713.503 697.753 712.256 698.26 710.79 698.26C709.323 698.26 708.076 697.753 707.05 696.74C706.036 695.727 705.53 694.48 705.53 693C705.53 691.52 706.036 690.273 707.05 689.26C708.076 688.247 709.323 687.74 710.79 687.74C712.256 687.74 713.503 688.247 714.53 689.26C715.556 690.273 716.07 691.52 716.07 693C716.07 694.48 715.556 695.727 714.53 696.74ZM710.79 696.56C711.79 696.56 712.63 696.22 713.31 695.54C713.99 694.86 714.33 694.013 714.33 693C714.33 691.987 713.99 691.14 713.31 690.46C712.63 689.78 711.79 689.44 710.79 689.44C709.803 689.44 708.97 689.78 708.29 690.46C707.61 691.14 707.27 691.987 707.27 693C707.27 694.013 707.61 694.86 708.29 695.54C708.97 696.22 709.803 696.56 710.79 696.56ZM719.406 690.7C719.406 691.087 719.599 691.4 719.986 691.64C720.373 691.867 720.839 692.053 721.386 692.2C721.933 692.333 722.479 692.493 723.026 692.68C723.573 692.853 724.039 693.16 724.426 693.6C724.813 694.027 725.006 694.58 725.006 695.26C725.006 696.167 724.653 696.893 723.946 697.44C723.253 697.987 722.359 698.26 721.266 698.26C720.293 698.26 719.459 698.047 718.766 697.62C718.073 697.193 717.579 696.627 717.286 695.92L718.786 695.06C718.946 695.54 719.246 695.92 719.686 696.2C720.126 696.48 720.653 696.62 721.266 696.62C721.839 696.62 722.313 696.513 722.686 696.3C723.059 696.073 723.246 695.727 723.246 695.26C723.246 694.873 723.053 694.567 722.666 694.34C722.279 694.1 721.813 693.913 721.266 693.78C720.719 693.633 720.173 693.467 719.626 693.28C719.079 693.093 718.613 692.787 718.226 692.36C717.839 691.933 717.646 691.387 717.646 690.72C717.646 689.853 717.979 689.14 718.646 688.58C719.326 688.02 720.173 687.74 721.186 687.74C721.999 687.74 722.719 687.927 723.346 688.3C723.986 688.66 724.466 689.167 724.786 689.82L723.326 690.64C722.966 689.787 722.253 689.36 721.186 689.36C720.693 689.36 720.273 689.48 719.926 689.72C719.579 689.947 719.406 690.273 719.406 690.7ZM740.346 684H742.086V698H740.346V696.28C739.479 697.6 738.219 698.26 736.566 698.26C735.166 698.26 733.973 697.753 732.986 696.74C731.999 695.713 731.506 694.467 731.506 693C731.506 691.533 731.999 690.293 732.986 689.28C733.973 688.253 735.166 687.74 736.566 687.74C738.219 687.74 739.479 688.4 740.346 689.72V684ZM736.786 696.58C737.799 696.58 738.646 696.24 739.326 695.56C740.006 694.867 740.346 694.013 740.346 693C740.346 691.987 740.006 691.14 739.326 690.46C738.646 689.767 737.799 689.42 736.786 689.42C735.786 689.42 734.946 689.767 734.266 690.46C733.586 691.14 733.246 691.987 733.246 693C733.246 694.013 733.586 694.867 734.266 695.56C734.946 696.24 735.786 696.58 736.786 696.58ZM745.942 693.8C746.116 694.693 746.522 695.387 747.162 695.88C747.816 696.373 748.616 696.62 749.562 696.62C750.882 696.62 751.842 696.133 752.442 695.16L753.922 696C752.949 697.507 751.482 698.26 749.522 698.26C747.936 698.26 746.642 697.767 745.642 696.78C744.656 695.78 744.162 694.52 744.162 693C744.162 691.493 744.649 690.24 745.622 689.24C746.596 688.24 747.856 687.74 749.402 687.74C750.869 687.74 752.062 688.26 752.982 689.3C753.916 690.327 754.382 691.567 754.382 693.02C754.382 693.273 754.362 693.533 754.322 693.8H745.942ZM749.402 689.38C748.469 689.38 747.696 689.647 747.082 690.18C746.469 690.7 746.089 691.4 745.942 692.28H752.622C752.476 691.333 752.102 690.613 751.502 690.12C750.902 689.627 750.202 689.38 749.402 689.38ZM758.123 689.68C758.696 688.44 759.736 687.82 761.243 687.82V689.64C760.389 689.6 759.656 689.827 759.043 690.32C758.429 690.813 758.123 691.607 758.123 692.7V698H756.382V688H758.123V689.68ZM763.618 693.8C763.791 694.693 764.198 695.387 764.838 695.88C765.491 696.373 766.291 696.62 767.238 696.62C768.558 696.62 769.518 696.133 770.118 695.16L771.598 696C770.625 697.507 769.158 698.26 767.198 698.26C765.611 698.26 764.318 697.767 763.318 696.78C762.331 695.78 761.838 694.52 761.838 693C761.838 691.493 762.325 690.24 763.298 689.24C764.271 688.24 765.531 687.74 767.078 687.74C768.545 687.74 769.738 688.26 770.658 689.3C771.591 690.327 772.058 691.567 772.058 693.02C772.058 693.273 772.038 693.533 771.998 693.8H763.618ZM767.078 689.38C766.145 689.38 765.371 689.647 764.758 690.18C764.145 690.7 763.765 691.4 763.618 692.28H770.298C770.151 691.333 769.778 690.613 769.178 690.12C768.578 689.627 767.878 689.38 767.078 689.38ZM778.739 698.26C777.232 698.26 775.979 697.76 774.979 696.76C773.979 695.747 773.479 694.493 773.479 693C773.479 691.507 773.979 690.26 774.979 689.26C775.979 688.247 777.232 687.74 778.739 687.74C779.725 687.74 780.612 687.98 781.399 688.46C782.185 688.927 782.772 689.56 783.159 690.36L781.699 691.2C781.445 690.667 781.052 690.24 780.519 689.92C779.999 689.6 779.405 689.44 778.739 689.44C777.739 689.44 776.899 689.78 776.219 690.46C775.552 691.14 775.219 691.987 775.219 693C775.219 694 775.552 694.84 776.219 695.52C776.899 696.2 777.739 696.54 778.739 696.54C779.405 696.54 780.005 696.387 780.539 696.08C781.072 695.76 781.479 695.333 781.759 694.8L783.239 695.66C782.812 696.447 782.199 697.08 781.399 697.56C780.599 698.027 779.712 698.26 778.739 698.26ZM789.937 687.74C791.11 687.74 792.05 688.113 792.757 688.86C793.463 689.593 793.817 690.593 793.817 691.86V698H792.077V691.96C792.077 691.147 791.857 690.52 791.417 690.08C790.977 689.627 790.37 689.4 789.597 689.4C788.73 689.4 788.03 689.673 787.497 690.22C786.963 690.753 786.697 691.58 786.697 692.7V698H784.957V684H786.697V689.44C787.403 688.307 788.483 687.74 789.937 687.74ZM804.686 696.74C803.659 697.753 802.412 698.26 800.946 698.26C799.479 698.26 798.232 697.753 797.206 696.74C796.192 695.727 795.686 694.48 795.686 693C795.686 691.52 796.192 690.273 797.206 689.26C798.232 688.247 799.479 687.74 800.946 687.74C802.412 687.74 803.659 688.247 804.686 689.26C805.712 690.273 806.226 691.52 806.226 693C806.226 694.48 805.712 695.727 804.686 696.74ZM800.946 696.56C801.946 696.56 802.786 696.22 803.466 695.54C804.146 694.86 804.486 694.013 804.486 693C804.486 691.987 804.146 691.14 803.466 690.46C802.786 689.78 801.946 689.44 800.946 689.44C799.959 689.44 799.126 689.78 798.446 690.46C797.766 691.14 797.426 691.987 797.426 693C797.426 694.013 797.766 694.86 798.446 695.54C799.126 696.22 799.959 696.56 800.946 696.56ZM809.562 690.7C809.562 691.087 809.756 691.4 810.142 691.64C810.529 691.867 810.996 692.053 811.542 692.2C812.089 692.333 812.636 692.493 813.182 692.68C813.729 692.853 814.196 693.16 814.582 693.6C814.969 694.027 815.162 694.58 815.162 695.26C815.162 696.167 814.809 696.893 814.102 697.44C813.409 697.987 812.516 698.26 811.422 698.26C810.449 698.26 809.616 698.047 808.922 697.62C808.229 697.193 807.736 696.627 807.442 695.92L808.942 695.06C809.102 695.54 809.402 695.92 809.842 696.2C810.282 696.48 810.809 696.62 811.422 696.62C811.996 696.62 812.469 696.513 812.842 696.3C813.216 696.073 813.402 695.727 813.402 695.26C813.402 694.873 813.209 694.567 812.822 694.34C812.436 694.1 811.969 693.913 811.422 693.78C810.876 693.633 810.329 693.467 809.782 693.28C809.236 693.093 808.769 692.787 808.382 692.36C807.996 691.933 807.802 691.387 807.802 690.72C807.802 689.853 808.136 689.14 808.802 688.58C809.482 688.02 810.329 687.74 811.342 687.74C812.156 687.74 812.876 687.927 813.502 688.3C814.142 688.66 814.622 689.167 814.942 689.82L813.482 690.64C813.122 689.787 812.409 689.36 811.342 689.36C810.849 689.36 810.429 689.48 810.082 689.72C809.736 689.947 809.562 690.273 809.562 690.7ZM823.962 689.68C824.536 688.44 825.576 687.82 827.082 687.82V689.64C826.229 689.6 825.496 689.827 824.882 690.32C824.269 690.813 823.962 691.607 823.962 692.7V698H822.222V688H823.962V689.68ZM829.458 693.8C829.631 694.693 830.038 695.387 830.678 695.88C831.331 696.373 832.131 696.62 833.078 696.62C834.398 696.62 835.358 696.133 835.958 695.16L837.438 696C836.465 697.507 834.998 698.26 833.038 698.26C831.451 698.26 830.158 697.767 829.158 696.78C828.171 695.78 827.678 694.52 827.678 693C827.678 691.493 828.165 690.24 829.138 689.24C830.111 688.24 831.371 687.74 832.918 687.74C834.385 687.74 835.578 688.26 836.498 689.3C837.431 690.327 837.898 691.567 837.898 693.02C837.898 693.273 837.878 693.533 837.838 693.8H829.458ZM832.918 689.38C831.985 689.38 831.211 689.647 830.598 690.18C829.985 690.7 829.605 691.4 829.458 692.28H836.138C835.991 691.333 835.618 690.613 835.018 690.12C834.418 689.627 833.718 689.38 832.918 689.38ZM841.008 690.7C841.008 691.087 841.201 691.4 841.588 691.64C841.974 691.867 842.441 692.053 842.988 692.2C843.534 692.333 844.081 692.493 844.628 692.68C845.174 692.853 845.641 693.16 846.028 693.6C846.414 694.027 846.608 694.58 846.608 695.26C846.608 696.167 846.254 696.893 845.548 697.44C844.854 697.987 843.961 698.26 842.868 698.26C841.894 698.26 841.061 698.047 840.368 697.62C839.674 697.193 839.181 696.627 838.888 695.92L840.388 695.06C840.548 695.54 840.848 695.92 841.288 696.2C841.728 696.48 842.254 696.62 842.868 696.62C843.441 696.62 843.914 696.513 844.288 696.3C844.661 696.073 844.848 695.727 844.848 695.26C844.848 694.873 844.654 694.567 844.268 694.34C843.881 694.1 843.414 693.913 842.868 693.78C842.321 693.633 841.774 693.467 841.228 693.28C840.681 693.093 840.214 692.787 839.828 692.36C839.441 691.933 839.248 691.387 839.248 690.72C839.248 689.853 839.581 689.14 840.248 688.58C840.928 688.02 841.774 687.74 842.788 687.74C843.601 687.74 844.321 687.927 844.948 688.3C845.588 688.66 846.068 689.167 846.388 689.82L844.928 690.64C844.568 689.787 843.854 689.36 842.788 689.36C842.294 689.36 841.874 689.48 841.528 689.72C841.181 689.947 841.008 690.273 841.008 690.7ZM849.614 693.8C849.788 694.693 850.194 695.387 850.834 695.88C851.488 696.373 852.288 696.62 853.234 696.62C854.554 696.62 855.514 696.133 856.114 695.16L857.594 696C856.621 697.507 855.154 698.26 853.194 698.26C851.608 698.26 850.314 697.767 849.314 696.78C848.328 695.78 847.834 694.52 847.834 693C847.834 691.493 848.321 690.24 849.294 689.24C850.268 688.24 851.528 687.74 853.074 687.74C854.541 687.74 855.734 688.26 856.654 689.3C857.588 690.327 858.054 691.567 858.054 693.02C858.054 693.273 858.034 693.533 857.994 693.8H849.614ZM853.074 689.38C852.141 689.38 851.368 689.647 850.754 690.18C850.141 690.7 849.761 691.4 849.614 692.28H856.294C856.148 691.333 855.774 690.613 855.174 690.12C854.574 689.627 853.874 689.38 853.074 689.38ZM861.794 689.68C862.368 688.44 863.408 687.82 864.914 687.82V689.64C864.061 689.6 863.328 689.827 862.714 690.32C862.101 690.813 861.794 691.607 861.794 692.7V698H860.054V688H861.794V689.68ZM873.617 688H875.497L871.497 698H869.457L865.457 688H867.337L870.477 696.14L873.617 688ZM884.858 688H886.598V698H884.858V696.28C883.991 697.6 882.731 698.26 881.078 698.26C879.678 698.26 878.484 697.753 877.498 696.74C876.511 695.713 876.018 694.467 876.018 693C876.018 691.533 876.511 690.293 877.498 689.28C878.484 688.253 879.678 687.74 881.078 687.74C882.731 687.74 883.991 688.4 884.858 689.72V688ZM881.298 696.58C882.311 696.58 883.158 696.24 883.838 695.56C884.518 694.867 884.858 694.013 884.858 693C884.858 691.987 884.518 691.14 883.838 690.46C883.158 689.767 882.311 689.42 881.298 689.42C880.298 689.42 879.458 689.767 878.778 690.46C878.098 691.14 877.758 691.987 877.758 693C877.758 694.013 878.098 694.867 878.778 695.56C879.458 696.24 880.298 696.58 881.298 696.58ZM897.514 684H899.254V698H897.514V696.28C896.647 697.6 895.387 698.26 893.734 698.26C892.334 698.26 891.141 697.753 890.154 696.74C889.167 695.713 888.674 694.467 888.674 693C888.674 691.533 889.167 690.293 890.154 689.28C891.141 688.253 892.334 687.74 893.734 687.74C895.387 687.74 896.647 688.4 897.514 689.72V684ZM893.954 696.58C894.967 696.58 895.814 696.24 896.494 695.56C897.174 694.867 897.514 694.013 897.514 693C897.514 691.987 897.174 691.14 896.494 690.46C895.814 689.767 894.967 689.42 893.954 689.42C892.954 689.42 892.114 689.767 891.434 690.46C890.754 691.14 890.414 691.987 890.414 693C890.414 694.013 890.754 694.867 891.434 695.56C892.114 696.24 892.954 696.58 893.954 696.58ZM910.33 696.74C909.304 697.753 908.057 698.26 906.59 698.26C905.124 698.26 903.877 697.753 902.85 696.74C901.837 695.727 901.33 694.48 901.33 693C901.33 691.52 901.837 690.273 902.85 689.26C903.877 688.247 905.124 687.74 906.59 687.74C908.057 687.74 909.304 688.247 910.33 689.26C911.357 690.273 911.87 691.52 911.87 693C911.87 694.48 911.357 695.727 910.33 696.74ZM906.59 696.56C907.59 696.56 908.43 696.22 909.11 695.54C909.79 694.86 910.13 694.013 910.13 693C910.13 691.987 909.79 691.14 909.11 690.46C908.43 689.78 907.59 689.44 906.59 689.44C905.604 689.44 904.77 689.78 904.09 690.46C903.41 691.14 903.07 691.987 903.07 693C903.07 694.013 903.41 694.86 904.09 695.54C904.77 696.22 905.604 696.56 906.59 696.56ZM915.207 690.7C915.207 691.087 915.4 691.4 915.787 691.64C916.173 691.867 916.64 692.053 917.187 692.2C917.733 692.333 918.28 692.493 918.827 692.68C919.373 692.853 919.84 693.16 920.227 693.6C920.613 694.027 920.807 694.58 920.807 695.26C920.807 696.167 920.453 696.893 919.747 697.44C919.053 697.987 918.16 698.26 917.067 698.26C916.093 698.26 915.26 698.047 914.567 697.62C913.873 697.193 913.38 696.627 913.087 695.92L914.587 695.06C914.747 695.54 915.047 695.92 915.487 696.2C915.927 696.48 916.453 696.62 917.067 696.62C917.64 696.62 918.113 696.513 918.487 696.3C918.86 696.073 919.047 695.727 919.047 695.26C919.047 694.873 918.853 694.567 918.467 694.34C918.08 694.1 917.613 693.913 917.067 693.78C916.52 693.633 915.973 693.467 915.427 693.28C914.88 693.093 914.413 692.787 914.027 692.36C913.64 691.933 913.447 691.387 913.447 690.72C913.447 689.853 913.78 689.14 914.447 688.58C915.127 688.02 915.973 687.74 916.987 687.74C917.8 687.74 918.52 687.927 919.147 688.3C919.787 688.66 920.267 689.167 920.587 689.82L919.127 690.64C918.767 689.787 918.053 689.36 916.987 689.36C916.493 689.36 916.073 689.48 915.727 689.72C915.38 689.947 915.207 690.273 915.207 690.7Z" fill="white"/>
<path d="M144 595H1160" stroke="#A1EF13"/>
<path d="M144 595H1160" stroke="#A1EF13"/>
<path d="M649.5 177.691C849.1 177.691 1017.33 112.19 1075.5 79.6903C953 34.6904 866.5 4.69011 657 0.19011C489.4 -3.40989 321.667 45.0238 263 68.6904C308.333 104.857 449.9 177.691 649.5 177.691Z" fill="#A1EF13"/>
<defs>
<clipPath id="clip0_1119_270">
<rect width="296" height="102" fill="white" transform="translate(148 348)"/>
</clipPath>
</defs>
</svg>
