<svg width="1280" height="786" viewBox="0 0 1280 786" fill="none" xmlns="http://www.w3.org/2000/svg">
<ellipse cx="641.5" cy="729.5" rx="934.5" ry="726.5" fill="#60007F"/>
<g clip-path="url(#clip0_1125_273)">
<path d="M286.006 389.286H279.236L267.112 360.815H274.851L282.59 379.684L290.379 360.815H298.118L285.994 389.286H286.006Z" fill="white"/>
<path d="M318.826 389.286L316.826 384.101H304.826L302.826 389.286H295.298L307.211 360.815H314.404L326.317 389.286H318.826ZM310.826 368.718L307.211 378.072H314.491L310.826 368.718Z" fill="white"/>
<path d="M357.46 372.501C357.572 373.407 357.634 374.275 357.634 375.094C357.634 379.399 356.242 382.947 353.46 385.738C350.677 388.529 347.149 389.919 342.864 389.919C338.578 389.919 334.913 388.492 331.944 385.627C328.975 382.761 327.497 379.238 327.497 375.044C327.497 370.851 328.963 367.365 331.907 364.487C334.839 361.609 338.454 360.17 342.739 360.17C346.006 360.17 348.901 360.914 351.423 362.403C353.944 363.892 355.696 365.988 356.652 368.717L349.882 370.678C348.491 367.961 346.106 366.596 342.739 366.596C340.416 366.596 338.466 367.402 336.913 369.015C335.348 370.628 334.578 372.638 334.578 375.044C334.578 377.451 335.385 379.473 336.988 381.098C338.59 382.724 340.578 383.542 342.963 383.542C344.801 383.542 346.391 383.083 347.708 382.178C349.025 381.272 349.957 380.019 350.491 378.444H341.77V372.489H357.472L357.46 372.501Z" fill="white"/>
<path d="M382.354 389.286L380.354 384.101H368.354L366.354 389.286H358.826L370.739 360.815H377.932L389.845 389.286H382.354ZM374.354 368.718L370.739 378.072H378.019L374.354 368.718Z" fill="white"/>
<path d="M300.006 421.69H293.199V407.498L285.758 421.69H281.422L273.931 407.411V421.69H267.124V393.219H274.018L283.596 410.86L293.174 393.219H300.031V421.69H300.006Z" fill="white"/>
<path d="M331.248 408.85C331.248 412.932 330.093 416.194 327.782 418.651C325.472 421.107 322.416 422.323 318.615 422.323C314.814 422.323 311.596 421.095 309.236 418.651C306.863 416.194 305.683 412.932 305.683 408.85V393.207H312.702V408.85C312.702 411.009 313.236 412.708 314.317 413.974C315.397 415.239 316.826 415.859 318.615 415.859C320.404 415.859 321.683 415.227 322.702 413.974C323.72 412.708 324.23 411.009 324.23 408.85V393.207H331.248V408.85Z" fill="white"/>
<path d="M364.143 421.69H358.354L343.932 405.203V421.69H336.913V393.219H342.739L357.162 410.215V393.219H364.143V421.69Z" fill="white"/>
<path d="M381.211 393.219C385.894 393.219 389.671 394.534 392.528 397.152C395.397 399.769 396.826 403.206 396.826 407.461C396.826 411.716 395.397 415.14 392.528 417.77C389.658 420.388 385.894 421.703 381.211 421.703H369.932V393.231H381.211V393.219ZM380.95 415.611C383.621 415.611 385.758 414.867 387.36 413.378C388.963 411.89 389.77 409.917 389.77 407.448C389.77 404.98 388.963 403.007 387.36 401.518C385.758 400.03 383.621 399.285 380.95 399.285H376.95V415.599H380.95V415.611Z" fill="white"/>
<path d="M426.59 396.916C429.522 399.806 431 403.33 431 407.498C431 411.666 429.534 415.14 426.59 418.018C423.658 420.896 420.056 422.335 415.807 422.335C411.559 422.335 407.956 420.896 405.025 418.018C402.093 415.14 400.615 411.641 400.615 407.498C400.615 403.354 402.081 399.806 405.025 396.916C407.956 394.025 411.559 392.586 415.807 392.586C420.056 392.586 423.658 394.025 426.59 396.916ZM421.633 413.515C423.199 411.914 423.969 409.905 423.969 407.498C423.969 405.091 423.186 403.032 421.633 401.419C420.068 399.806 418.13 399 415.807 399C413.484 399 411.534 399.806 409.981 401.419C408.416 403.032 407.646 405.054 407.646 407.498C407.646 409.942 408.428 411.914 409.981 413.515C411.546 415.115 413.484 415.921 415.807 415.921C418.13 415.921 420.081 415.115 421.633 413.515Z" fill="white"/>
<path d="M150.578 375.95H166.155V392.351C157.559 392.351 150.578 385.379 150.578 376.794V375.95Z" fill="white"/>
<path d="M226.279 375.95H241.857V377.513C241.857 390.825 230.652 392.351 228.329 392.351H226.292V375.95H226.279Z" fill="white"/>
<path d="M226.28 375.95C218.801 375.95 211.969 378.692 206.714 383.208V361.15H194.54C189.658 361.15 185.708 365.095 185.708 369.971V383.22C180.441 378.704 173.621 375.963 166.143 375.963V392.363H150.578V393.207C150.578 401.791 157.547 408.751 166.143 408.763H169.832C169.832 423.29 181.658 435.101 196.205 435.101C210.752 435.101 222.578 423.29 222.578 408.763H226.267C234.863 408.763 241.832 401.804 241.832 393.207V392.363H226.267V375.963L226.28 375.95ZM188.205 387.698C184.143 391.532 179.745 397.66 179.099 406.555H173.758C174.59 397.884 180.354 390.676 188.205 387.698ZM173.758 410.934H179.112C179.807 419.718 184.578 426.057 188.739 429.99C180.615 427.136 174.627 419.804 173.77 410.934H173.758ZM194.019 428.737C190.217 425.734 184.354 419.73 183.497 410.934H194.019V428.737ZM194.019 406.555H183.484C184.292 397.015 190.23 391.246 194.019 388.517V406.555ZM193.075 371.633C193.075 369.909 194.478 368.494 196.217 368.494C197.957 368.494 199.36 369.896 199.36 371.633C199.36 373.37 197.957 374.772 196.217 374.772C194.478 374.772 193.075 373.37 193.075 371.633ZM208.329 406.555H198.404V388.554C202.031 391.284 207.571 396.966 208.329 406.555ZM198.404 428.625V410.934H208.317C207.547 420.251 202.031 425.896 198.404 428.625ZM203.447 430.076C207.472 426.342 212.056 420.139 212.702 410.934H218.665C217.795 419.879 211.696 427.285 203.447 430.076ZM212.702 406.555C212.093 397.511 207.857 391.395 203.957 387.599C211.944 390.515 217.82 397.784 218.665 406.555H212.702Z" fill="white"/>
<path d="M135 375.95V376.794C135 385.379 141.969 392.351 150.578 392.351V375.95H135Z" fill="white"/>
<path d="M241.845 375.95V392.351C250.441 392.351 257.422 385.391 257.422 376.794V375.95H241.845Z" fill="white"/>
<path d="M206.714 370.951V361.15H196.888L206.714 370.951Z" fill="white"/>
<path d="M196.217 440.051C194.23 440.051 192.279 439.84 190.391 439.492L196.217 450.013L202.043 439.492C200.155 439.852 198.217 440.051 196.217 440.051Z" fill="white"/>
<path d="M198.242 348H195.497V353.384H198.242V348Z" fill="white"/>
<path d="M188.59 348.74L185.906 349.316L187.039 354.58L189.723 354.004L188.59 348.74Z" fill="white"/>
<path d="M179.311 351.47L176.807 352.594L179.018 357.505L181.522 356.381L179.311 351.47Z" fill="white"/>
<path d="M170.811 356.099L168.598 357.722L171.79 362.061L174.002 360.438L170.811 356.099Z" fill="white"/>
<path d="M163.465 362.381L161.641 364.431L165.671 368.007L167.495 365.957L163.465 362.381Z" fill="white"/>
<path d="M205.153 348.726L204.022 353.99L206.706 354.565L207.837 349.301L205.153 348.726Z" fill="white"/>
<path d="M214.425 351.466L212.213 356.376L214.717 357.501L216.928 352.591L214.425 351.466Z" fill="white"/>
<path d="M222.926 356.095L219.737 360.436L221.95 362.058L225.14 357.717L222.926 356.095Z" fill="white"/>
<path d="M230.278 362.368L226.246 365.942L228.069 367.993L232.1 364.418L230.278 362.368Z" fill="white"/>
<path d="M214.722 439.485L212.219 440.61L214.43 445.52L216.934 444.395L214.722 439.485Z" fill="white"/>
<path d="M221.952 434.939L219.739 436.562L222.931 440.901L225.144 439.278L221.952 434.939Z" fill="white"/>
<path d="M228.063 428.987L226.24 431.037L230.271 434.612L232.094 432.562L228.063 428.987Z" fill="white"/>
<path d="M231.934 421.958L230.909 424.502L235.911 426.512L236.936 423.968L231.934 421.958Z" fill="white"/>
<path d="M161.71 421.958L156.708 423.968L157.733 426.511L162.735 424.502L161.71 421.958Z" fill="white"/>
<path d="M179.008 439.476L176.796 444.386L179.3 445.511L181.512 440.601L179.008 439.476Z" fill="white"/>
<path d="M171.788 434.947L168.595 439.285L170.807 440.909L174 436.571L171.788 434.947Z" fill="white"/>
<path d="M165.662 428.996L161.632 432.572L163.455 434.622L167.486 431.046L165.662 428.996Z" fill="white"/>
<path d="M271.335 432.62V438.475H269.509V432.62H267.087V431.019H273.758V432.62H271.335Z" fill="white"/>
<path d="M283.459 438.488L281.211 435.92H280.677V438.488H278.838V431.019H282.615C283.422 431.019 284.081 431.243 284.565 431.689C285.05 432.136 285.298 432.731 285.298 433.451C285.298 434.059 285.124 434.58 284.776 434.989C284.428 435.399 283.944 435.684 283.335 435.82L285.683 438.475H283.459V438.488ZM282.416 434.381C282.739 434.381 283 434.294 283.199 434.133C283.397 433.972 283.497 433.749 283.497 433.476C283.497 433.203 283.397 432.992 283.199 432.831C283 432.669 282.739 432.582 282.416 432.582H280.677V434.381H282.416Z" fill="white"/>
<path d="M296.217 438.488L295.695 437.123H292.553L292.031 438.488H290.056L293.174 431.019H295.062L298.18 438.488H296.217ZM294.118 433.091L293.174 435.547H295.087L294.13 433.091H294.118Z" fill="white"/>
<path d="M306.379 438.488H304.602L301.422 431.019H303.447L305.484 435.969L307.522 431.019H309.559L306.379 438.488Z" fill="white"/>
<path d="M320.304 438.488H314.478V431.019H320.267V432.607H316.317V434.009H319.944V435.498H316.317V436.9H320.292V438.488H320.304Z" fill="white"/>
<path d="M331.186 438.488H325.671V431.019H327.509V436.875H331.186V438.475V438.488Z" fill="white"/>
<path d="M341.932 438.488H336.416V431.019H338.255V436.875H341.932V438.475V438.488Z" fill="white"/>
<path d="M352.988 438.488H347.162V431.019H352.95V432.607H349V434.009H352.627V435.498H349V436.9H352.975V438.488H352.988Z" fill="white"/>
<path d="M362.975 438.488L360.727 435.92H360.193V438.488H358.354V431.019H362.13C362.938 431.019 363.596 431.243 364.081 431.689C364.565 432.136 364.814 432.731 364.814 433.451C364.814 434.059 364.64 434.58 364.292 434.989C363.944 435.399 363.46 435.684 362.851 435.82L365.199 438.475H362.975V438.488ZM361.932 434.381C362.255 434.381 362.515 434.294 362.714 434.133C362.913 433.972 363.012 433.749 363.012 433.476C363.012 433.203 362.913 432.992 362.714 432.831C362.515 432.669 362.255 432.582 361.932 432.582H360.193V434.381H361.932Z" fill="white"/>
<path d="M375.025 431.429C375.571 431.813 375.919 432.347 376.068 433.017L374.267 433.389C374.205 433.054 374.043 432.793 373.795 432.62C373.547 432.446 373.273 432.347 372.963 432.347C372.652 432.347 372.429 432.421 372.242 432.57C372.056 432.719 371.969 432.893 371.969 433.116C371.969 433.438 372.168 433.649 372.565 433.736L374.118 434.083C375.484 434.394 376.168 435.113 376.168 436.255C376.168 437.024 375.87 437.619 375.286 438.041C374.702 438.463 373.969 438.674 373.087 438.674C372.205 438.674 371.484 438.475 370.876 438.078C370.267 437.681 369.919 437.123 369.82 436.416L371.72 436.044C371.894 436.776 372.391 437.148 373.186 437.148C373.534 437.148 373.795 437.073 373.994 436.937C374.192 436.8 374.292 436.614 374.292 436.379C374.292 436.205 374.242 436.056 374.143 435.957C374.043 435.858 373.857 435.771 373.596 435.721L372.031 435.386C370.689 435.076 370.019 434.356 370.019 433.227C370.019 432.508 370.292 431.937 370.838 431.516C371.385 431.094 372.093 430.883 372.975 430.883C373.795 430.883 374.478 431.069 375.025 431.453V431.429Z" fill="white"/>
</g>
<path d="M436.12 696.12C434.707 697.533 433 698.24 431 698.24C429 698.24 427.293 697.533 425.88 696.12C424.467 694.707 423.76 693 423.76 691C423.76 689 424.467 687.293 425.88 685.88C427.293 684.467 429 683.76 431 683.76C433 683.76 434.707 684.467 436.12 685.88C437.533 687.293 438.24 689 438.24 691C438.24 693 437.533 694.707 436.12 696.12ZM431 697.64C432.813 697.64 434.36 696.993 435.64 695.7C436.933 694.407 437.58 692.84 437.58 691C437.58 689.16 436.933 687.593 435.64 686.3C434.36 685.007 432.813 684.36 431 684.36C429.173 684.36 427.613 685.007 426.32 686.3C425.04 687.593 424.4 689.16 424.4 691C424.4 692.84 425.04 694.407 426.32 695.7C427.613 696.993 429.173 697.64 431 697.64ZM431.06 694.86C429.967 694.86 429.04 694.487 428.28 693.74C427.52 692.98 427.14 692.067 427.14 691C427.14 689.933 427.52 689.027 428.28 688.28C429.04 687.52 429.967 687.14 431.06 687.14C431.767 687.14 432.413 687.307 433 687.64C433.587 687.973 434.04 688.433 434.36 689.02L432.98 689.82C432.633 689.073 431.987 688.7 431.04 688.7C430.36 688.7 429.807 688.927 429.38 689.38C428.967 689.833 428.76 690.373 428.76 691C428.76 691.627 428.967 692.167 429.38 692.62C429.807 693.073 430.36 693.3 431.04 693.3C431.467 693.3 431.86 693.2 432.22 693C432.58 692.8 432.84 692.52 433 692.16L434.38 692.98C434.06 693.553 433.6 694.013 433 694.36C432.413 694.693 431.767 694.86 431.06 694.86ZM439.697 698V696.48L444.637 691.44C445.957 690.12 446.617 688.987 446.617 688.04C446.617 687.253 446.377 686.64 445.897 686.2C445.417 685.76 444.83 685.54 444.137 685.54C442.817 685.54 441.857 686.167 441.257 687.42L439.697 686.5C440.137 685.593 440.743 684.907 441.517 684.44C442.303 683.973 443.17 683.74 444.117 683.74C445.29 683.74 446.31 684.127 447.177 684.9C448.043 685.673 448.477 686.713 448.477 688.02C448.477 689.433 447.643 690.973 445.977 692.64L442.397 696.2H448.737V698H439.697ZM459.608 696.28C458.661 697.6 457.335 698.26 455.628 698.26C453.921 698.26 452.595 697.6 451.648 696.28C450.701 694.96 450.228 693.2 450.228 691C450.228 688.8 450.701 687.04 451.648 685.72C452.595 684.4 453.921 683.74 455.628 683.74C457.335 683.74 458.661 684.4 459.608 685.72C460.555 687.04 461.028 688.8 461.028 691C461.028 693.2 460.555 694.96 459.608 696.28ZM453.008 695.02C453.621 695.967 454.495 696.44 455.628 696.44C456.761 696.44 457.635 695.967 458.248 695.02C458.875 694.073 459.188 692.733 459.188 691C459.188 689.267 458.875 687.927 458.248 686.98C457.635 686.02 456.761 685.54 455.628 685.54C454.495 685.54 453.621 686.013 453.008 686.96C452.395 687.907 452.088 689.253 452.088 691C452.088 692.733 452.395 694.073 453.008 695.02ZM462.392 698V696.48L467.332 691.44C468.652 690.12 469.312 688.987 469.312 688.04C469.312 687.253 469.072 686.64 468.592 686.2C468.112 685.76 467.525 685.54 466.832 685.54C465.512 685.54 464.552 686.167 463.952 687.42L462.392 686.5C462.832 685.593 463.439 684.907 464.212 684.44C464.999 683.973 465.865 683.74 466.812 683.74C467.985 683.74 469.005 684.127 469.872 684.9C470.739 685.673 471.172 686.713 471.172 688.02C471.172 689.433 470.339 690.973 468.672 692.64L465.092 696.2H471.432V698H462.392ZM483.047 693.6V695.34H481.347V698H479.487V695.34H472.347V693.6L477.367 684H479.367L474.347 693.6H479.487V689.64H481.347V693.6H483.047ZM493.629 698L488.629 684H490.629L494.689 695.68L498.729 684H500.749L495.729 698H493.629ZM509.299 688H511.039V698H509.299V696.28C508.433 697.6 507.173 698.26 505.519 698.26C504.119 698.26 502.926 697.753 501.939 696.74C500.953 695.713 500.459 694.467 500.459 693C500.459 691.533 500.953 690.293 501.939 689.28C502.926 688.253 504.119 687.74 505.519 687.74C507.173 687.74 508.433 688.4 509.299 689.72V688ZM505.739 696.58C506.753 696.58 507.599 696.24 508.279 695.56C508.959 694.867 509.299 694.013 509.299 693C509.299 691.987 508.959 691.14 508.279 690.46C507.599 689.767 506.753 689.42 505.739 689.42C504.739 689.42 503.899 689.767 503.219 690.46C502.539 691.14 502.199 691.987 502.199 693C502.199 694.013 502.539 694.867 503.219 695.56C503.899 696.24 504.739 696.58 505.739 696.58ZM521.975 688H523.695V697.58C523.695 699.06 523.195 700.207 522.195 701.02C521.195 701.847 519.995 702.26 518.595 702.26C517.475 702.26 516.509 702.047 515.695 701.62C514.882 701.207 514.269 700.607 513.855 699.82L515.375 698.96C515.922 700.08 517.009 700.64 518.635 700.64C519.675 700.64 520.489 700.367 521.075 699.82C521.675 699.273 521.975 698.527 521.975 697.58V696.16C521.095 697.493 519.842 698.16 518.215 698.16C516.789 698.16 515.582 697.653 514.595 696.64C513.609 695.627 513.115 694.393 513.115 692.94C513.115 691.487 513.609 690.26 514.595 689.26C515.582 688.247 516.789 687.74 518.215 687.74C519.855 687.74 521.109 688.4 521.975 689.72V688ZM515.875 695.48C516.555 696.16 517.402 696.5 518.415 696.5C519.429 696.5 520.275 696.16 520.955 695.48C521.635 694.8 521.975 693.953 521.975 692.94C521.975 691.94 521.635 691.1 520.955 690.42C520.275 689.74 519.429 689.4 518.415 689.4C517.402 689.4 516.555 689.74 515.875 690.42C515.195 691.1 514.855 691.94 514.855 692.94C514.855 693.953 515.195 694.8 515.875 695.48ZM534.612 688H536.352V698H534.612V696.28C533.745 697.6 532.485 698.26 530.832 698.26C529.432 698.26 528.238 697.753 527.252 696.74C526.265 695.713 525.772 694.467 525.772 693C525.772 691.533 526.265 690.293 527.252 689.28C528.238 688.253 529.432 687.74 530.832 687.74C532.485 687.74 533.745 688.4 534.612 689.72V688ZM531.052 696.58C532.065 696.58 532.912 696.24 533.592 695.56C534.272 694.867 534.612 694.013 534.612 693C534.612 691.987 534.272 691.14 533.592 690.46C532.912 689.767 532.065 689.42 531.052 689.42C530.052 689.42 529.212 689.767 528.532 690.46C527.852 691.14 527.512 691.987 527.512 693C527.512 694.013 527.852 694.867 528.532 695.56C529.212 696.24 530.052 696.58 531.052 696.58ZM539.168 692.7V691.02H546.468V692.7H539.168ZM562.561 684V698H560.721V687.06L556.141 694.68H555.901L551.321 687.08V698H549.461V684H551.561L556.021 691.4L560.461 684H562.561ZM572.275 688H574.015V698H572.275V696.56C571.568 697.693 570.488 698.26 569.035 698.26C567.861 698.26 566.921 697.893 566.215 697.16C565.508 696.413 565.155 695.407 565.155 694.14V688H566.895V694.04C566.895 694.853 567.115 695.487 567.555 695.94C567.995 696.38 568.601 696.6 569.375 696.6C570.241 696.6 570.941 696.333 571.475 695.8C572.008 695.253 572.275 694.42 572.275 693.3V688ZM581.644 687.74C582.817 687.74 583.757 688.113 584.464 688.86C585.17 689.593 585.524 690.593 585.524 691.86V698H583.784V691.96C583.784 691.147 583.564 690.52 583.124 690.08C582.684 689.627 582.077 689.4 581.304 689.4C580.437 689.4 579.737 689.673 579.204 690.22C578.67 690.753 578.404 691.58 578.404 692.7V698H576.664V688H578.404V689.44C579.11 688.307 580.19 687.74 581.644 687.74ZM596.233 684H597.973V698H596.233V696.28C595.366 697.6 594.106 698.26 592.453 698.26C591.053 698.26 589.859 697.753 588.873 696.74C587.886 695.713 587.393 694.467 587.393 693C587.393 691.533 587.886 690.293 588.873 689.28C589.859 688.253 591.053 687.74 592.453 687.74C594.106 687.74 595.366 688.4 596.233 689.72V684ZM592.673 696.58C593.686 696.58 594.533 696.24 595.213 695.56C595.893 694.867 596.233 694.013 596.233 693C596.233 691.987 595.893 691.14 595.213 690.46C594.533 689.767 593.686 689.42 592.673 689.42C591.673 689.42 590.833 689.767 590.153 690.46C589.473 691.14 589.133 691.987 589.133 693C589.133 694.013 589.473 694.867 590.153 695.56C590.833 696.24 591.673 696.58 592.673 696.58ZM609.049 696.74C608.022 697.753 606.776 698.26 605.309 698.26C603.842 698.26 602.596 697.753 601.569 696.74C600.556 695.727 600.049 694.48 600.049 693C600.049 691.52 600.556 690.273 601.569 689.26C602.596 688.247 603.842 687.74 605.309 687.74C606.776 687.74 608.022 688.247 609.049 689.26C610.076 690.273 610.589 691.52 610.589 693C610.589 694.48 610.076 695.727 609.049 696.74ZM605.309 696.56C606.309 696.56 607.149 696.22 607.829 695.54C608.509 694.86 608.849 694.013 608.849 693C608.849 691.987 608.509 691.14 607.829 690.46C607.149 689.78 606.309 689.44 605.309 689.44C604.322 689.44 603.489 689.78 602.809 690.46C602.129 691.14 601.789 691.987 601.789 693C601.789 694.013 602.129 694.86 602.809 695.54C603.489 696.22 604.322 696.56 605.309 696.56ZM621.12 692.58C620.694 693.02 620.167 693.24 619.54 693.24C618.914 693.24 618.38 693.02 617.94 692.58C617.5 692.14 617.28 691.607 617.28 690.98C617.28 690.353 617.5 689.827 617.94 689.4C618.38 688.96 618.914 688.74 619.54 688.74C620.167 688.74 620.694 688.96 621.12 689.4C621.56 689.827 621.78 690.353 621.78 690.98C621.78 691.607 621.56 692.14 621.12 692.58ZM638.187 684V685.76H634.047V698H632.207V685.76H628.087V684H638.187ZM646.471 696.74C645.444 697.753 644.198 698.26 642.731 698.26C641.264 698.26 640.018 697.753 638.991 696.74C637.978 695.727 637.471 694.48 637.471 693C637.471 691.52 637.978 690.273 638.991 689.26C640.018 688.247 641.264 687.74 642.731 687.74C644.198 687.74 645.444 688.247 646.471 689.26C647.498 690.273 648.011 691.52 648.011 693C648.011 694.48 647.498 695.727 646.471 696.74ZM642.731 696.56C643.731 696.56 644.571 696.22 645.251 695.54C645.931 694.86 646.271 694.013 646.271 693C646.271 691.987 645.931 691.14 645.251 690.46C644.571 689.78 643.731 689.44 642.731 689.44C641.744 689.44 640.911 689.78 640.231 690.46C639.551 691.14 639.211 691.987 639.211 693C639.211 694.013 639.551 694.86 640.231 695.54C640.911 696.22 641.744 696.56 642.731 696.56ZM658.342 684H660.082V698H658.342V696.28C657.476 697.6 656.216 698.26 654.562 698.26C653.162 698.26 651.969 697.753 650.982 696.74C649.996 695.713 649.502 694.467 649.502 693C649.502 691.533 649.996 690.293 650.982 689.28C651.969 688.253 653.162 687.74 654.562 687.74C656.216 687.74 657.476 688.4 658.342 689.72V684ZM654.782 696.58C655.796 696.58 656.642 696.24 657.322 695.56C658.002 694.867 658.342 694.013 658.342 693C658.342 691.987 658.002 691.14 657.322 690.46C656.642 689.767 655.796 689.42 654.782 689.42C653.782 689.42 652.942 689.767 652.262 690.46C651.582 691.14 651.242 691.987 651.242 693C651.242 694.013 651.582 694.867 652.262 695.56C652.942 696.24 653.782 696.58 654.782 696.58ZM671.158 696.74C670.132 697.753 668.885 698.26 667.418 698.26C665.952 698.26 664.705 697.753 663.678 696.74C662.665 695.727 662.158 694.48 662.158 693C662.158 691.52 662.665 690.273 663.678 689.26C664.705 688.247 665.952 687.74 667.418 687.74C668.885 687.74 670.132 688.247 671.158 689.26C672.185 690.273 672.698 691.52 672.698 693C672.698 694.48 672.185 695.727 671.158 696.74ZM667.418 696.56C668.418 696.56 669.258 696.22 669.938 695.54C670.618 694.86 670.958 694.013 670.958 693C670.958 691.987 670.618 691.14 669.938 690.46C669.258 689.78 668.418 689.44 667.418 689.44C666.432 689.44 665.598 689.78 664.918 690.46C664.238 691.14 663.898 691.987 663.898 693C663.898 694.013 664.238 694.86 664.918 695.54C665.598 696.22 666.432 696.56 667.418 696.56ZM676.035 690.7C676.035 691.087 676.228 691.4 676.615 691.64C677.002 691.867 677.468 692.053 678.015 692.2C678.562 692.333 679.108 692.493 679.655 692.68C680.202 692.853 680.668 693.16 681.055 693.6C681.442 694.027 681.635 694.58 681.635 695.26C681.635 696.167 681.282 696.893 680.575 697.44C679.882 697.987 678.988 698.26 677.895 698.26C676.922 698.26 676.088 698.047 675.395 697.62C674.702 697.193 674.208 696.627 673.915 695.92L675.415 695.06C675.575 695.54 675.875 695.92 676.315 696.2C676.755 696.48 677.282 696.62 677.895 696.62C678.468 696.62 678.942 696.513 679.315 696.3C679.688 696.073 679.875 695.727 679.875 695.26C679.875 694.873 679.682 694.567 679.295 694.34C678.908 694.1 678.442 693.913 677.895 693.78C677.348 693.633 676.802 693.467 676.255 693.28C675.708 693.093 675.242 692.787 674.855 692.36C674.468 691.933 674.275 691.387 674.275 690.72C674.275 689.853 674.608 689.14 675.275 688.58C675.955 688.02 676.802 687.74 677.815 687.74C678.628 687.74 679.348 687.927 679.975 688.3C680.615 688.66 681.095 689.167 681.415 689.82L679.955 690.64C679.595 689.787 678.882 689.36 677.815 689.36C677.322 689.36 676.902 689.48 676.555 689.72C676.208 689.947 676.035 690.273 676.035 690.7ZM688.695 698V683.4H690.435V698H688.695ZM701.53 696.74C700.503 697.753 699.256 698.26 697.79 698.26C696.323 698.26 695.076 697.753 694.05 696.74C693.036 695.727 692.53 694.48 692.53 693C692.53 691.52 693.036 690.273 694.05 689.26C695.076 688.247 696.323 687.74 697.79 687.74C699.256 687.74 700.503 688.247 701.53 689.26C702.556 690.273 703.07 691.52 703.07 693C703.07 694.48 702.556 695.727 701.53 696.74ZM697.79 696.56C698.79 696.56 699.63 696.22 700.31 695.54C700.99 694.86 701.33 694.013 701.33 693C701.33 691.987 700.99 691.14 700.31 690.46C699.63 689.78 698.79 689.44 697.79 689.44C696.803 689.44 695.97 689.78 695.29 690.46C694.61 691.14 694.27 691.987 694.27 693C694.27 694.013 694.61 694.86 695.29 695.54C695.97 696.22 696.803 696.56 697.79 696.56ZM706.406 690.7C706.406 691.087 706.599 691.4 706.986 691.64C707.373 691.867 707.839 692.053 708.386 692.2C708.933 692.333 709.479 692.493 710.026 692.68C710.573 692.853 711.039 693.16 711.426 693.6C711.813 694.027 712.006 694.58 712.006 695.26C712.006 696.167 711.653 696.893 710.946 697.44C710.253 697.987 709.359 698.26 708.266 698.26C707.293 698.26 706.459 698.047 705.766 697.62C705.073 697.193 704.579 696.627 704.286 695.92L705.786 695.06C705.946 695.54 706.246 695.92 706.686 696.2C707.126 696.48 707.653 696.62 708.266 696.62C708.839 696.62 709.313 696.513 709.686 696.3C710.059 696.073 710.246 695.727 710.246 695.26C710.246 694.873 710.053 694.567 709.666 694.34C709.279 694.1 708.813 693.913 708.266 693.78C707.719 693.633 707.173 693.467 706.626 693.28C706.079 693.093 705.613 692.787 705.226 692.36C704.839 691.933 704.646 691.387 704.646 690.72C704.646 689.853 704.979 689.14 705.646 688.58C706.326 688.02 707.173 687.74 708.186 687.74C708.999 687.74 709.719 687.927 710.346 688.3C710.986 688.66 711.466 689.167 711.786 689.82L710.326 690.64C709.966 689.787 709.253 689.36 708.186 689.36C707.693 689.36 707.273 689.48 706.926 689.72C706.579 689.947 706.406 690.273 706.406 690.7ZM727.346 684H729.086V698H727.346V696.28C726.479 697.6 725.219 698.26 723.566 698.26C722.166 698.26 720.973 697.753 719.986 696.74C718.999 695.713 718.506 694.467 718.506 693C718.506 691.533 718.999 690.293 719.986 689.28C720.973 688.253 722.166 687.74 723.566 687.74C725.219 687.74 726.479 688.4 727.346 689.72V684ZM723.786 696.58C724.799 696.58 725.646 696.24 726.326 695.56C727.006 694.867 727.346 694.013 727.346 693C727.346 691.987 727.006 691.14 726.326 690.46C725.646 689.767 724.799 689.42 723.786 689.42C722.786 689.42 721.946 689.767 721.266 690.46C720.586 691.14 720.246 691.987 720.246 693C720.246 694.013 720.586 694.867 721.266 695.56C721.946 696.24 722.786 696.58 723.786 696.58ZM732.942 693.8C733.116 694.693 733.522 695.387 734.162 695.88C734.816 696.373 735.616 696.62 736.562 696.62C737.882 696.62 738.842 696.133 739.442 695.16L740.922 696C739.949 697.507 738.482 698.26 736.522 698.26C734.936 698.26 733.642 697.767 732.642 696.78C731.656 695.78 731.162 694.52 731.162 693C731.162 691.493 731.649 690.24 732.622 689.24C733.596 688.24 734.856 687.74 736.402 687.74C737.869 687.74 739.062 688.26 739.982 689.3C740.916 690.327 741.382 691.567 741.382 693.02C741.382 693.273 741.362 693.533 741.322 693.8H732.942ZM736.402 689.38C735.469 689.38 734.696 689.647 734.082 690.18C733.469 690.7 733.089 691.4 732.942 692.28H739.622C739.476 691.333 739.102 690.613 738.502 690.12C737.902 689.627 737.202 689.38 736.402 689.38ZM745.123 689.68C745.696 688.44 746.736 687.82 748.243 687.82V689.64C747.389 689.6 746.656 689.827 746.043 690.32C745.429 690.813 745.123 691.607 745.123 692.7V698H743.382V688H745.123V689.68ZM750.618 693.8C750.791 694.693 751.198 695.387 751.838 695.88C752.491 696.373 753.291 696.62 754.238 696.62C755.558 696.62 756.518 696.133 757.118 695.16L758.598 696C757.625 697.507 756.158 698.26 754.198 698.26C752.611 698.26 751.318 697.767 750.318 696.78C749.331 695.78 748.838 694.52 748.838 693C748.838 691.493 749.325 690.24 750.298 689.24C751.271 688.24 752.531 687.74 754.078 687.74C755.545 687.74 756.738 688.26 757.658 689.3C758.591 690.327 759.058 691.567 759.058 693.02C759.058 693.273 759.038 693.533 758.998 693.8H750.618ZM754.078 689.38C753.145 689.38 752.371 689.647 751.758 690.18C751.145 690.7 750.765 691.4 750.618 692.28H757.298C757.151 691.333 756.778 690.613 756.178 690.12C755.578 689.627 754.878 689.38 754.078 689.38ZM765.739 698.26C764.232 698.26 762.979 697.76 761.979 696.76C760.979 695.747 760.479 694.493 760.479 693C760.479 691.507 760.979 690.26 761.979 689.26C762.979 688.247 764.232 687.74 765.739 687.74C766.725 687.74 767.612 687.98 768.399 688.46C769.185 688.927 769.772 689.56 770.159 690.36L768.699 691.2C768.445 690.667 768.052 690.24 767.519 689.92C766.999 689.6 766.405 689.44 765.739 689.44C764.739 689.44 763.899 689.78 763.219 690.46C762.552 691.14 762.219 691.987 762.219 693C762.219 694 762.552 694.84 763.219 695.52C763.899 696.2 764.739 696.54 765.739 696.54C766.405 696.54 767.005 696.387 767.539 696.08C768.072 695.76 768.479 695.333 768.759 694.8L770.239 695.66C769.812 696.447 769.199 697.08 768.399 697.56C767.599 698.027 766.712 698.26 765.739 698.26ZM776.937 687.74C778.11 687.74 779.05 688.113 779.757 688.86C780.463 689.593 780.817 690.593 780.817 691.86V698H779.077V691.96C779.077 691.147 778.857 690.52 778.417 690.08C777.977 689.627 777.37 689.4 776.597 689.4C775.73 689.4 775.03 689.673 774.497 690.22C773.963 690.753 773.697 691.58 773.697 692.7V698H771.957V684H773.697V689.44C774.403 688.307 775.483 687.74 776.937 687.74ZM791.686 696.74C790.659 697.753 789.412 698.26 787.946 698.26C786.479 698.26 785.232 697.753 784.206 696.74C783.192 695.727 782.686 694.48 782.686 693C782.686 691.52 783.192 690.273 784.206 689.26C785.232 688.247 786.479 687.74 787.946 687.74C789.412 687.74 790.659 688.247 791.686 689.26C792.712 690.273 793.226 691.52 793.226 693C793.226 694.48 792.712 695.727 791.686 696.74ZM787.946 696.56C788.946 696.56 789.786 696.22 790.466 695.54C791.146 694.86 791.486 694.013 791.486 693C791.486 691.987 791.146 691.14 790.466 690.46C789.786 689.78 788.946 689.44 787.946 689.44C786.959 689.44 786.126 689.78 785.446 690.46C784.766 691.14 784.426 691.987 784.426 693C784.426 694.013 784.766 694.86 785.446 695.54C786.126 696.22 786.959 696.56 787.946 696.56ZM796.562 690.7C796.562 691.087 796.756 691.4 797.142 691.64C797.529 691.867 797.996 692.053 798.542 692.2C799.089 692.333 799.636 692.493 800.182 692.68C800.729 692.853 801.196 693.16 801.582 693.6C801.969 694.027 802.162 694.58 802.162 695.26C802.162 696.167 801.809 696.893 801.102 697.44C800.409 697.987 799.516 698.26 798.422 698.26C797.449 698.26 796.616 698.047 795.922 697.62C795.229 697.193 794.736 696.627 794.442 695.92L795.942 695.06C796.102 695.54 796.402 695.92 796.842 696.2C797.282 696.48 797.809 696.62 798.422 696.62C798.996 696.62 799.469 696.513 799.842 696.3C800.216 696.073 800.402 695.727 800.402 695.26C800.402 694.873 800.209 694.567 799.822 694.34C799.436 694.1 798.969 693.913 798.422 693.78C797.876 693.633 797.329 693.467 796.782 693.28C796.236 693.093 795.769 692.787 795.382 692.36C794.996 691.933 794.802 691.387 794.802 690.72C794.802 689.853 795.136 689.14 795.802 688.58C796.482 688.02 797.329 687.74 798.342 687.74C799.156 687.74 799.876 687.927 800.502 688.3C801.142 688.66 801.622 689.167 801.942 689.82L800.482 690.64C800.122 689.787 799.409 689.36 798.342 689.36C797.849 689.36 797.429 689.48 797.082 689.72C796.736 689.947 796.562 690.273 796.562 690.7ZM810.962 689.68C811.536 688.44 812.576 687.82 814.082 687.82V689.64C813.229 689.6 812.496 689.827 811.882 690.32C811.269 690.813 810.962 691.607 810.962 692.7V698H809.222V688H810.962V689.68ZM816.458 693.8C816.631 694.693 817.038 695.387 817.678 695.88C818.331 696.373 819.131 696.62 820.078 696.62C821.398 696.62 822.358 696.133 822.958 695.16L824.438 696C823.465 697.507 821.998 698.26 820.038 698.26C818.451 698.26 817.158 697.767 816.158 696.78C815.171 695.78 814.678 694.52 814.678 693C814.678 691.493 815.165 690.24 816.138 689.24C817.111 688.24 818.371 687.74 819.918 687.74C821.385 687.74 822.578 688.26 823.498 689.3C824.431 690.327 824.898 691.567 824.898 693.02C824.898 693.273 824.878 693.533 824.838 693.8H816.458ZM819.918 689.38C818.985 689.38 818.211 689.647 817.598 690.18C816.985 690.7 816.605 691.4 816.458 692.28H823.138C822.991 691.333 822.618 690.613 822.018 690.12C821.418 689.627 820.718 689.38 819.918 689.38ZM828.008 690.7C828.008 691.087 828.201 691.4 828.588 691.64C828.974 691.867 829.441 692.053 829.988 692.2C830.534 692.333 831.081 692.493 831.628 692.68C832.174 692.853 832.641 693.16 833.028 693.6C833.414 694.027 833.608 694.58 833.608 695.26C833.608 696.167 833.254 696.893 832.548 697.44C831.854 697.987 830.961 698.26 829.868 698.26C828.894 698.26 828.061 698.047 827.368 697.62C826.674 697.193 826.181 696.627 825.888 695.92L827.388 695.06C827.548 695.54 827.848 695.92 828.288 696.2C828.728 696.48 829.254 696.62 829.868 696.62C830.441 696.62 830.914 696.513 831.288 696.3C831.661 696.073 831.848 695.727 831.848 695.26C831.848 694.873 831.654 694.567 831.268 694.34C830.881 694.1 830.414 693.913 829.868 693.78C829.321 693.633 828.774 693.467 828.228 693.28C827.681 693.093 827.214 692.787 826.828 692.36C826.441 691.933 826.248 691.387 826.248 690.72C826.248 689.853 826.581 689.14 827.248 688.58C827.928 688.02 828.774 687.74 829.788 687.74C830.601 687.74 831.321 687.927 831.948 688.3C832.588 688.66 833.068 689.167 833.388 689.82L831.928 690.64C831.568 689.787 830.854 689.36 829.788 689.36C829.294 689.36 828.874 689.48 828.528 689.72C828.181 689.947 828.008 690.273 828.008 690.7ZM836.614 693.8C836.788 694.693 837.194 695.387 837.834 695.88C838.488 696.373 839.288 696.62 840.234 696.62C841.554 696.62 842.514 696.133 843.114 695.16L844.594 696C843.621 697.507 842.154 698.26 840.194 698.26C838.608 698.26 837.314 697.767 836.314 696.78C835.328 695.78 834.834 694.52 834.834 693C834.834 691.493 835.321 690.24 836.294 689.24C837.268 688.24 838.528 687.74 840.074 687.74C841.541 687.74 842.734 688.26 843.654 689.3C844.588 690.327 845.054 691.567 845.054 693.02C845.054 693.273 845.034 693.533 844.994 693.8H836.614ZM840.074 689.38C839.141 689.38 838.368 689.647 837.754 690.18C837.141 690.7 836.761 691.4 836.614 692.28H843.294C843.148 691.333 842.774 690.613 842.174 690.12C841.574 689.627 840.874 689.38 840.074 689.38ZM848.794 689.68C849.368 688.44 850.408 687.82 851.914 687.82V689.64C851.061 689.6 850.328 689.827 849.714 690.32C849.101 690.813 848.794 691.607 848.794 692.7V698H847.054V688H848.794V689.68ZM860.617 688H862.497L858.497 698H856.457L852.457 688H854.337L857.477 696.14L860.617 688ZM871.858 688H873.598V698H871.858V696.28C870.991 697.6 869.731 698.26 868.078 698.26C866.678 698.26 865.484 697.753 864.498 696.74C863.511 695.713 863.018 694.467 863.018 693C863.018 691.533 863.511 690.293 864.498 689.28C865.484 688.253 866.678 687.74 868.078 687.74C869.731 687.74 870.991 688.4 871.858 689.72V688ZM868.298 696.58C869.311 696.58 870.158 696.24 870.838 695.56C871.518 694.867 871.858 694.013 871.858 693C871.858 691.987 871.518 691.14 870.838 690.46C870.158 689.767 869.311 689.42 868.298 689.42C867.298 689.42 866.458 689.767 865.778 690.46C865.098 691.14 864.758 691.987 864.758 693C864.758 694.013 865.098 694.867 865.778 695.56C866.458 696.24 867.298 696.58 868.298 696.58ZM884.514 684H886.254V698H884.514V696.28C883.647 697.6 882.387 698.26 880.734 698.26C879.334 698.26 878.141 697.753 877.154 696.74C876.167 695.713 875.674 694.467 875.674 693C875.674 691.533 876.167 690.293 877.154 689.28C878.141 688.253 879.334 687.74 880.734 687.74C882.387 687.74 883.647 688.4 884.514 689.72V684ZM880.954 696.58C881.967 696.58 882.814 696.24 883.494 695.56C884.174 694.867 884.514 694.013 884.514 693C884.514 691.987 884.174 691.14 883.494 690.46C882.814 689.767 881.967 689.42 880.954 689.42C879.954 689.42 879.114 689.767 878.434 690.46C877.754 691.14 877.414 691.987 877.414 693C877.414 694.013 877.754 694.867 878.434 695.56C879.114 696.24 879.954 696.58 880.954 696.58ZM897.33 696.74C896.304 697.753 895.057 698.26 893.59 698.26C892.124 698.26 890.877 697.753 889.85 696.74C888.837 695.727 888.33 694.48 888.33 693C888.33 691.52 888.837 690.273 889.85 689.26C890.877 688.247 892.124 687.74 893.59 687.74C895.057 687.74 896.304 688.247 897.33 689.26C898.357 690.273 898.87 691.52 898.87 693C898.87 694.48 898.357 695.727 897.33 696.74ZM893.59 696.56C894.59 696.56 895.43 696.22 896.11 695.54C896.79 694.86 897.13 694.013 897.13 693C897.13 691.987 896.79 691.14 896.11 690.46C895.43 689.78 894.59 689.44 893.59 689.44C892.604 689.44 891.77 689.78 891.09 690.46C890.41 691.14 890.07 691.987 890.07 693C890.07 694.013 890.41 694.86 891.09 695.54C891.77 696.22 892.604 696.56 893.59 696.56ZM902.207 690.7C902.207 691.087 902.4 691.4 902.787 691.64C903.173 691.867 903.64 692.053 904.187 692.2C904.733 692.333 905.28 692.493 905.827 692.68C906.373 692.853 906.84 693.16 907.227 693.6C907.613 694.027 907.807 694.58 907.807 695.26C907.807 696.167 907.453 696.893 906.747 697.44C906.053 697.987 905.16 698.26 904.067 698.26C903.093 698.26 902.26 698.047 901.567 697.62C900.873 697.193 900.38 696.627 900.087 695.92L901.587 695.06C901.747 695.54 902.047 695.92 902.487 696.2C902.927 696.48 903.453 696.62 904.067 696.62C904.64 696.62 905.113 696.513 905.487 696.3C905.86 696.073 906.047 695.727 906.047 695.26C906.047 694.873 905.853 694.567 905.467 694.34C905.08 694.1 904.613 693.913 904.067 693.78C903.52 693.633 902.973 693.467 902.427 693.28C901.88 693.093 901.413 692.787 901.027 692.36C900.64 691.933 900.447 691.387 900.447 690.72C900.447 689.853 900.78 689.14 901.447 688.58C902.127 688.02 902.973 687.74 903.987 687.74C904.8 687.74 905.52 687.927 906.147 688.3C906.787 688.66 907.267 689.167 907.587 689.82L906.127 690.64C905.767 689.787 905.053 689.36 903.987 689.36C903.493 689.36 903.073 689.48 902.727 689.72C902.38 689.947 902.207 690.273 902.207 690.7Z" fill="white"/>
<path d="M131 595H1147" stroke="#A1EF13"/>
<path d="M131 595H1147" stroke="#A1EF13"/>
<path d="M636.5 177.691C836.1 177.691 1004.33 112.19 1062.5 79.6903C940 34.6904 853.5 4.69011 644 0.19011C476.4 -3.40989 308.667 45.0238 250 68.6904C295.333 104.857 436.9 177.691 636.5 177.691Z" fill="#EAEAEA"/>
<defs>
<clipPath id="clip0_1125_273">
<rect width="296" height="102" fill="white" transform="translate(135 348)"/>
</clipPath>
</defs>
</svg>
